<svg width="500" height="418" viewBox="0 0 500 418" fill="none" xmlns="http://www.w3.org/2000/svg">
<path d="M0 415.85L0.440277 0.432922L500 0V418H0.815887L0 415.85ZM92.7922 333.713H17.1925V401.659H92.7922V333.713ZM180.397 333.807L180.419 322.532L180.397 254.615L192.427 254.615L192.446 322.532H268.046V254.619V243.405V175.459V163.417V96.3315H192.446L192.427 243.405H180.397V96.3315H104.819V84.2905H180.419V16.3444H104.819V84.2905V243.405H92.7922V16.3444H17.1925V84.2653H92.7922L104.819 84.2905V96.3315L17.1925 96.3568V163.417L104.819 163.835H180.397L268.046 163.417V175.459H17.1925V243.405H268.046V254.619L17.1925 254.608V322.532H92.7922V254.611L104.819 254.612V322.532L180.419 322.532L180.397 333.807H104.819V401.659H180.419L180.397 333.807ZM268.046 333.713H192.446V401.659H268.046V333.713ZM483.248 312.641L299.776 312.203L300.262 292.859L483.677 292.421V239.104H299.776L300.262 219.753L483.677 219.315V165.998H299.832V146.216H483.677V92.899L300.262 92.4612L299.776 73.1172L483.248 72.6794V16.7745H285.658L285.224 384.464L483.248 384.027V312.641ZM268.046 16.3264L192.876 16.7745L192.427 84.2905H268.046V16.3264Z" fill="#C49E5F"/>
</svg>
