<svg width="366" height="75" viewBox="0 0 366 75" fill="none" xmlns="http://www.w3.org/2000/svg">
<path d="M116.659 37.6188C114.401 37.6188 112.32 37.2649 110.415 36.5569C108.538 35.8218 106.891 34.7871 105.477 33.453C104.089 32.1188 103.001 30.5532 102.212 28.7562C101.45 26.9592 101.069 24.9851 101.069 22.8342C101.069 20.6832 101.45 18.7092 102.212 16.9121C103.001 15.1151 104.103 13.5495 105.517 12.2153C106.932 10.8812 108.592 9.86015 110.497 9.15223C112.401 8.41708 114.496 8.0495 116.782 8.0495C119.312 8.0495 121.584 8.47153 123.598 9.31559C125.638 10.1597 127.352 11.3849 128.74 12.9913L124.495 16.9121C123.461 15.823 122.332 15.0198 121.108 14.5025C119.884 13.9579 118.55 13.6856 117.108 13.6856C115.721 13.6856 114.455 13.9035 113.313 14.3391C112.17 14.7748 111.177 15.401 110.333 16.2178C109.517 17.0347 108.878 18.0012 108.415 19.1176C107.98 20.2339 107.762 21.4728 107.762 22.8342C107.762 24.1683 107.98 25.3936 108.415 26.5099C108.878 27.6262 109.517 28.6064 110.333 29.4505C111.177 30.2673 112.156 30.8936 113.272 31.3292C114.415 31.7649 115.666 31.9827 117.027 31.9827C118.333 31.9827 119.598 31.7785 120.822 31.37C122.074 30.9344 123.285 30.2129 124.455 29.2054L128.209 33.9839C126.658 35.1547 124.849 36.0532 122.781 36.6795C120.741 37.3057 118.7 37.6188 116.659 37.6188ZM122.169 33.1262V22.3849H128.209V33.9839L122.169 33.1262Z" fill="#C49E5F"/>
<path d="M142.922 37.6188C140.636 37.6188 138.446 37.3193 136.351 36.7203C134.256 36.0941 132.569 35.2908 131.29 34.3106L133.535 29.328C134.759 30.1993 136.201 30.9208 137.861 31.4926C139.548 32.0371 141.248 32.3094 142.963 32.3094C144.269 32.3094 145.316 32.1869 146.105 31.9418C146.921 31.6696 147.52 31.302 147.901 30.8391C148.282 30.3762 148.472 29.8453 148.472 29.2463C148.472 28.4839 148.173 27.8849 147.575 27.4493C146.976 26.9864 146.187 26.6188 145.207 26.3465C144.228 26.047 143.139 25.7748 141.942 25.5297C140.772 25.2574 139.589 24.9307 138.392 24.5495C137.222 24.1683 136.147 23.6782 135.167 23.0792C134.188 22.4802 133.385 21.6906 132.759 20.7104C132.161 19.7302 131.862 18.4777 131.862 16.953C131.862 15.3193 132.297 13.8354 133.168 12.5012C134.065 11.1398 135.399 10.0644 137.167 9.27475C138.963 8.45792 141.208 8.0495 143.901 8.0495C145.697 8.0495 147.466 8.26733 149.207 8.70297C150.948 9.11138 152.486 9.73762 153.819 10.5817L151.778 15.6052C150.445 14.8428 149.112 14.2847 147.779 13.9307C146.445 13.5495 145.139 13.3589 143.861 13.3589C142.582 13.3589 141.534 13.5087 140.718 13.8082C139.902 14.1077 139.317 14.5025 138.963 14.9926C138.609 15.4554 138.432 16 138.432 16.6262C138.432 17.3614 138.732 17.9604 139.33 18.4233C139.929 18.8589 140.718 19.2129 141.697 19.4851C142.677 19.7574 143.752 20.0297 144.922 20.302C146.119 20.5743 147.302 20.8874 148.472 21.2413C149.67 21.5953 150.758 22.0718 151.737 22.6708C152.717 23.2698 153.506 24.0594 154.105 25.0396C154.73 26.0198 155.043 27.2587 155.043 28.7562C155.043 30.3626 154.594 31.8329 153.696 33.1671C152.799 34.5012 151.452 35.5767 149.656 36.3936C147.887 37.2104 145.643 37.6188 142.922 37.6188Z" fill="#C49E5F"/>
<path d="M158.745 37.1287V8.5396H164.214L176.376 28.7153H173.478L185.436 8.5396H190.865L190.946 37.1287H184.743L184.702 18.0557H185.845L176.294 34.1064H173.315L163.561 18.0557H164.948V37.1287H158.745Z" fill="#C49E5F"/>
<path d="M217.037 37.6188C214.752 37.6188 212.561 37.3193 210.466 36.7203C208.371 36.0941 206.684 35.2908 205.405 34.3106L207.65 29.328C208.875 30.1993 210.317 30.9208 211.976 31.4926C213.663 32.0371 215.364 32.3094 217.078 32.3094C218.384 32.3094 219.432 32.1869 220.221 31.9418C221.037 31.6696 221.635 31.302 222.016 30.8391C222.397 30.3762 222.588 29.8453 222.588 29.2463C222.588 28.4839 222.288 27.8849 221.69 27.4493C221.091 26.9864 220.302 26.6188 219.323 26.3465C218.343 26.047 217.255 25.7748 216.058 25.5297C214.888 25.2574 213.704 24.9307 212.507 24.5495C211.337 24.1683 210.262 23.6782 209.283 23.0792C208.303 22.4802 207.501 21.6906 206.875 20.7104C206.276 19.7302 205.977 18.4777 205.977 16.953C205.977 15.3193 206.412 13.8354 207.283 12.5012C208.181 11.1398 209.514 10.0644 211.283 9.27475C213.078 8.45792 215.323 8.0495 218.017 8.0495C219.812 8.0495 221.581 8.26733 223.322 8.70297C225.064 9.11138 226.601 9.73762 227.934 10.5817L225.894 15.6052C224.56 14.8428 223.227 14.2847 221.894 13.9307C220.561 13.5495 219.255 13.3589 217.976 13.3589C216.697 13.3589 215.65 13.5087 214.833 13.8082C214.017 14.1077 213.432 14.5025 213.078 14.9926C212.725 15.4554 212.548 16 212.548 16.6262C212.548 17.3614 212.847 17.9604 213.446 18.4233C214.044 18.8589 214.833 19.2129 215.813 19.4851C216.792 19.7574 217.867 20.0297 219.037 20.302C220.234 20.5743 221.418 20.8874 222.588 21.2413C223.785 21.5953 224.873 22.0718 225.853 22.6708C226.832 23.2698 227.621 24.0594 228.22 25.0396C228.846 26.0198 229.159 27.2587 229.159 28.7562C229.159 30.3626 228.71 31.8329 227.812 33.1671C226.914 34.5012 225.567 35.5767 223.771 36.3936C222.003 37.2104 219.758 37.6188 217.037 37.6188Z" fill="#C49E5F"/>
<path d="M232.86 37.1287V8.5396H239.472V37.1287H232.86Z" fill="#C49E5F"/>
<path d="M254.823 37.6188C252.537 37.6188 250.347 37.3193 248.252 36.7203C246.157 36.0941 244.47 35.2908 243.191 34.3106L245.436 29.328C246.66 30.1993 248.102 30.9208 249.762 31.4926C251.449 32.0371 253.149 32.3094 254.863 32.3094C256.169 32.3094 257.217 32.1869 258.006 31.9418C258.822 31.6696 259.421 31.302 259.802 30.8391C260.183 30.3762 260.373 29.8453 260.373 29.2463C260.373 28.4839 260.074 27.8849 259.475 27.4493C258.877 26.9864 258.088 26.6188 257.108 26.3465C256.129 26.047 255.04 25.7748 253.843 25.5297C252.673 25.2574 251.49 24.9307 250.292 24.5495C249.122 24.1683 248.048 23.6782 247.068 23.0792C246.089 22.4802 245.286 21.6906 244.66 20.7104C244.062 19.7302 243.762 18.4777 243.762 16.953C243.762 15.3193 244.198 13.8354 245.068 12.5012C245.966 11.1398 247.299 10.0644 249.068 9.27475C250.864 8.45792 253.108 8.0495 255.802 8.0495C257.598 8.0495 259.367 8.26733 261.108 8.70297C262.849 9.11138 264.386 9.73762 265.72 10.5817L263.679 15.6052C262.346 14.8428 261.013 14.2847 259.679 13.9307C258.346 13.5495 257.04 13.3589 255.761 13.3589C254.483 13.3589 253.435 13.5087 252.619 13.8082C251.802 14.1077 251.217 14.5025 250.864 14.9926C250.51 15.4554 250.333 16 250.333 16.6262C250.333 17.3614 250.633 17.9604 251.231 18.4233C251.83 18.8589 252.619 19.2129 253.598 19.4851C254.578 19.7574 255.653 20.0297 256.822 20.302C258.02 20.5743 259.203 20.8874 260.373 21.2413C261.57 21.5953 262.659 22.0718 263.638 22.6708C264.618 23.2698 265.407 24.0594 266.005 25.0396C266.631 26.0198 266.944 27.2587 266.944 28.7562C266.944 30.3626 266.495 31.8329 265.597 33.1671C264.699 34.5012 263.353 35.5767 261.557 36.3936C259.788 37.2104 257.544 37.6188 254.823 37.6188Z" fill="#C49E5F"/>
<path d="M276.165 37.1287V13.9307H267.023V8.5396H291.919V13.9307H282.777V37.1287H276.165Z" fill="#C49E5F"/>
<path d="M300.741 20.0569H314.495V25.203H300.741V20.0569ZM301.231 31.8193H316.781V37.1287H294.66V8.5396H316.25V13.849H301.231V31.8193Z" fill="#C49E5F"/>
<path d="M321.225 37.1287V8.5396H326.694L338.856 28.7153H335.959L347.917 8.5396H353.345L353.426 37.1287H347.223L347.182 18.0557H348.325L338.775 34.1064H335.795L326.041 18.0557H327.429V37.1287H321.225Z" fill="#C49E5F"/>
<path d="M359.388 37.1287V8.5396H366V37.1287H359.388Z" fill="#C49E5F"/>
<path d="M102.945 65.3465V49.7525H105.839V65.3465H102.945Z" fill="#C49E5F"/>
<path d="M115.419 53.3168C116.369 53.3168 117.215 53.5025 117.957 53.8738C118.714 54.245 119.308 54.8168 119.738 55.5891C120.168 56.3465 120.384 57.3267 120.384 58.5297V65.3465H117.601V58.8861C117.601 57.8317 117.349 57.0446 116.844 56.5248C116.354 56.005 115.664 55.7451 114.774 55.7451C114.121 55.7451 113.542 55.8787 113.037 56.146C112.533 56.4134 112.139 56.8144 111.857 57.349C111.59 57.8688 111.457 58.5297 111.457 59.3317V65.3465H108.674V53.4505H111.323V56.6584L110.856 55.6782C111.271 54.9208 111.872 54.3416 112.659 53.9406C113.46 53.5248 114.38 53.3168 115.419 53.3168Z" fill="#C49E5F"/>
<path d="M126.474 65.5025C125.479 65.5025 124.522 65.3762 123.602 65.1238C122.697 64.8564 121.977 64.5371 121.443 64.1658L122.511 62.0495C123.045 62.3911 123.684 62.6733 124.426 62.896C125.168 63.1188 125.91 63.2302 126.652 63.2302C127.527 63.2302 128.158 63.1114 128.544 62.8738C128.945 62.6361 129.145 62.3168 129.145 61.9158C129.145 61.5891 129.012 61.3441 128.744 61.1807C128.477 61.0025 128.129 60.8688 127.698 60.7797C127.268 60.6906 126.785 60.6089 126.251 60.5347C125.732 60.4604 125.205 60.3639 124.671 60.245C124.151 60.1114 123.676 59.9257 123.246 59.6881C122.815 59.4356 122.467 59.1015 122.2 58.6856C121.932 58.2698 121.799 57.7203 121.799 57.0371C121.799 56.2797 122.014 55.6262 122.444 55.0767C122.875 54.5124 123.476 54.0817 124.248 53.7847C125.034 53.4728 125.962 53.3168 127.03 53.3168C127.832 53.3168 128.641 53.4059 129.457 53.5842C130.273 53.7624 130.948 54.0149 131.483 54.3416L130.414 56.4579C129.85 56.1163 129.279 55.8861 128.7 55.7673C128.136 55.6337 127.572 55.5668 127.008 55.5668C126.162 55.5668 125.531 55.6931 125.116 55.9455C124.715 56.198 124.515 56.5173 124.515 56.9035C124.515 57.2599 124.648 57.5272 124.915 57.7054C125.183 57.8837 125.531 58.0248 125.962 58.1287C126.392 58.2327 126.867 58.3218 127.386 58.396C127.921 58.4554 128.448 58.552 128.967 58.6856C129.486 58.8193 129.961 59.005 130.392 59.2426C130.837 59.4653 131.193 59.7847 131.46 60.2005C131.727 60.6163 131.861 61.1584 131.861 61.8267C131.861 62.5693 131.638 63.2154 131.193 63.7649C130.763 64.3144 130.147 64.7451 129.346 65.0569C128.544 65.354 127.587 65.5025 126.474 65.5025Z" fill="#C49E5F"/>
<path d="M138.732 65.5025C137.411 65.5025 136.254 65.2426 135.259 64.7228C134.28 64.1881 133.515 63.4604 132.966 62.5396C132.432 61.6188 132.165 60.5718 132.165 59.3985C132.165 58.2104 132.425 57.1634 132.944 56.2574C133.478 55.3366 134.206 54.6163 135.126 54.0965C136.061 53.5767 137.122 53.3168 138.309 53.3168C139.467 53.3168 140.498 53.5693 141.403 54.0743C142.309 54.5792 143.021 55.2921 143.541 56.2129C144.06 57.1337 144.32 58.2178 144.32 59.4653C144.32 59.5842 144.312 59.7178 144.297 59.8663C144.297 60.0149 144.29 60.1559 144.275 60.2896H134.369V58.4406H142.806L141.715 59.0198C141.73 58.3366 141.589 57.7352 141.292 57.2154C140.995 56.6955 140.587 56.2871 140.068 55.9901C139.563 55.6931 138.977 55.5446 138.309 55.5446C137.626 55.5446 137.025 55.6931 136.506 55.9901C136.001 56.2871 135.601 56.703 135.304 57.2376C135.022 57.7574 134.881 58.3738 134.881 59.0866V59.5322C134.881 60.245 135.044 60.8762 135.371 61.4257C135.697 61.9752 136.157 62.3985 136.751 62.6955C137.344 62.9926 138.027 63.1411 138.799 63.1411C139.467 63.1411 140.068 63.0371 140.602 62.8292C141.136 62.6213 141.611 62.2946 142.027 61.849L143.518 63.5644C142.984 64.1881 142.309 64.6708 141.493 65.0124C140.691 65.3391 139.771 65.5025 138.732 65.5025Z" fill="#C49E5F"/>
<path d="M151.334 65.5025C150.087 65.5025 148.974 65.2426 147.994 64.7228C147.03 64.1881 146.273 63.4604 145.724 62.5396C145.175 61.6188 144.9 60.5718 144.9 59.3985C144.9 58.2104 145.175 57.1634 145.724 56.2574C146.273 55.3366 147.03 54.6163 147.994 54.0965C148.974 53.5767 150.087 53.3168 151.334 53.3168C152.491 53.3168 153.508 53.5545 154.384 54.0297C155.274 54.4901 155.949 55.1733 156.409 56.0792L154.272 57.3267C153.916 56.7624 153.478 56.3465 152.959 56.0792C152.454 55.8119 151.905 55.6782 151.311 55.6782C150.629 55.6782 150.013 55.8267 149.464 56.1238C148.915 56.4208 148.484 56.8515 148.173 57.4158C147.861 57.9653 147.705 58.6262 147.705 59.3985C147.705 60.1708 147.861 60.8391 148.173 61.4035C148.484 61.953 148.915 62.3762 149.464 62.6733C150.013 62.9703 150.629 63.1188 151.311 63.1188C151.905 63.1188 152.454 62.9851 152.959 62.7178C153.478 62.4505 153.916 62.0347 154.272 61.4703L156.409 62.7178C155.949 63.6089 155.274 64.2995 154.384 64.7896C153.508 65.2649 152.491 65.5025 151.334 65.5025Z" fill="#C49E5F"/>
<path d="M162.329 65.5025C161.022 65.5025 160.013 65.1683 159.301 64.5C158.589 63.8168 158.232 62.8144 158.232 61.4926V50.8218H161.015V61.4257C161.015 61.9901 161.156 62.4282 161.438 62.7401C161.735 63.052 162.143 63.2079 162.662 63.2079C163.286 63.2079 163.805 63.0446 164.221 62.7178L165 64.7005C164.673 64.9678 164.273 65.1683 163.798 65.302C163.323 65.4356 162.833 65.5025 162.329 65.5025ZM156.273 55.7673V53.5396H164.198V55.7673H156.273Z" fill="#C49E5F"/>
<path d="M176.313 65.5693C175.096 65.5693 173.931 65.3985 172.818 65.0569C171.705 64.7005 170.822 64.2475 170.169 63.698L171.171 61.448C171.794 61.9381 172.566 62.3465 173.486 62.6733C174.406 63 175.348 63.1634 176.313 63.1634C177.129 63.1634 177.79 63.0743 178.294 62.896C178.799 62.7178 179.17 62.4802 179.408 62.1832C179.645 61.8713 179.764 61.5223 179.764 61.1361C179.764 60.6609 179.593 60.2822 179.252 60C178.91 59.703 178.465 59.4728 177.916 59.3094C177.382 59.1312 176.781 58.9678 176.113 58.8193C175.46 58.6708 174.799 58.5 174.132 58.3069C173.479 58.099 172.877 57.8391 172.328 57.5272C171.794 57.2005 171.356 56.7698 171.015 56.2352C170.674 55.7005 170.503 55.0173 170.503 54.1856C170.503 53.3391 170.725 52.5668 171.171 51.8688C171.631 51.1559 172.321 50.5916 173.241 50.1757C174.176 49.7451 175.356 49.5297 176.781 49.5297C177.716 49.5297 178.643 49.6485 179.563 49.8861C180.483 50.1238 181.285 50.4653 181.968 50.9109L181.055 53.1609C180.357 52.745 179.638 52.4406 178.896 52.2475C178.153 52.0396 177.441 51.9356 176.758 51.9356C175.957 51.9356 175.304 52.0322 174.799 52.2253C174.31 52.4183 173.946 52.6708 173.709 52.9827C173.486 53.2946 173.375 53.651 173.375 54.052C173.375 54.5272 173.538 54.9134 173.864 55.2104C174.206 55.4926 174.644 55.7153 175.178 55.8787C175.727 56.0421 176.335 56.2054 177.003 56.3688C177.671 56.5173 178.332 56.6881 178.985 56.8812C179.652 57.0743 180.253 57.3267 180.788 57.6386C181.337 57.9505 181.775 58.3738 182.101 58.9084C182.443 59.4431 182.613 60.1188 182.613 60.9356C182.613 61.7673 182.383 62.5396 181.923 63.2525C181.478 63.9505 180.788 64.5149 179.853 64.9455C178.918 65.3614 177.738 65.5693 176.313 65.5693Z" fill="#C49E5F"/>
<path d="M189.557 65.5025C188.31 65.5025 187.197 65.2426 186.217 64.7228C185.253 64.1881 184.496 63.4604 183.947 62.5396C183.398 61.6188 183.123 60.5718 183.123 59.3985C183.123 58.2104 183.398 57.1634 183.947 56.2574C184.496 55.3366 185.253 54.6163 186.217 54.0965C187.197 53.5767 188.31 53.3168 189.557 53.3168C190.714 53.3168 191.731 53.5545 192.607 54.0297C193.497 54.4901 194.172 55.1733 194.632 56.0792L192.495 57.3267C192.139 56.7624 191.701 56.3465 191.182 56.0792C190.677 55.8119 190.128 55.6782 189.534 55.6782C188.852 55.6782 188.236 55.8267 187.687 56.1238C187.138 56.4208 186.707 56.8515 186.396 57.4158C186.084 57.9653 185.928 58.6262 185.928 59.3985C185.928 60.1708 186.084 60.8391 186.396 61.4035C186.707 61.953 187.138 62.3762 187.687 62.6733C188.236 62.9703 188.852 63.1188 189.534 63.1188C190.128 63.1188 190.677 62.9851 191.182 62.7178C191.701 62.4505 192.139 62.0347 192.495 61.4703L194.632 62.7178C194.172 63.6089 193.497 64.2995 192.607 64.7896C191.731 65.2649 190.714 65.5025 189.557 65.5025Z" fill="#C49E5F"/>
<path d="M195.925 65.3465V53.4505H198.574V56.7252L198.262 55.7673C198.618 54.9653 199.175 54.3564 199.932 53.9406C200.704 53.5248 201.661 53.3168 202.804 53.3168V55.9678C202.685 55.9381 202.574 55.9233 202.47 55.9233C202.366 55.9084 202.262 55.901 202.158 55.901C201.104 55.901 200.266 56.2129 199.642 56.8366C199.019 57.4455 198.707 58.3589 198.707 59.5767V65.3465H195.925Z" fill="#C49E5F"/>
<path d="M209.53 65.5025C208.209 65.5025 207.052 65.2426 206.057 64.7228C205.078 64.1881 204.313 63.4604 203.764 62.5396C203.23 61.6188 202.963 60.5718 202.963 59.3985C202.963 58.2104 203.223 57.1634 203.742 56.2574C204.276 55.3366 205.004 54.6163 205.924 54.0965C206.859 53.5767 207.92 53.3168 209.107 53.3168C210.265 53.3168 211.296 53.5693 212.201 54.0743C213.107 54.5792 213.819 55.2921 214.339 56.2129C214.858 57.1337 215.118 58.2178 215.118 59.4653C215.118 59.5842 215.11 59.7178 215.095 59.8663C215.095 60.0149 215.088 60.1559 215.073 60.2896H205.167V58.4406H213.604L212.513 59.0198C212.528 58.3366 212.387 57.7352 212.09 57.2154C211.793 56.6955 211.385 56.2871 210.866 55.9901C210.361 55.6931 209.775 55.5446 209.107 55.5446C208.424 55.5446 207.823 55.6931 207.304 55.9901C206.799 56.2871 206.399 56.703 206.102 57.2376C205.82 57.7574 205.679 58.3738 205.679 59.0866V59.5322C205.679 60.245 205.842 60.8762 206.169 61.4257C206.495 61.9752 206.955 62.3985 207.549 62.6955C208.142 62.9926 208.825 63.1411 209.597 63.1411C210.265 63.1411 210.866 63.0371 211.4 62.8292C211.934 62.6213 212.409 62.2946 212.825 61.849L214.316 63.5644C213.782 64.1881 213.107 64.6708 212.291 65.0124C211.489 65.3391 210.569 65.5025 209.53 65.5025Z" fill="#C49E5F"/>
<path d="M222.265 65.5025C220.944 65.5025 219.787 65.2426 218.792 64.7228C217.813 64.1881 217.049 63.4604 216.5 62.5396C215.965 61.6188 215.698 60.5718 215.698 59.3985C215.698 58.2104 215.958 57.1634 216.477 56.2574C217.012 55.3366 217.739 54.6163 218.659 54.0965C219.594 53.5767 220.655 53.3168 221.842 53.3168C223 53.3168 224.031 53.5693 224.937 54.0743C225.842 54.5792 226.554 55.2921 227.074 56.2129C227.593 57.1337 227.853 58.2178 227.853 59.4653C227.853 59.5842 227.846 59.7178 227.831 59.8663C227.831 60.0149 227.823 60.1559 227.808 60.2896H217.902V58.4406H226.339L225.248 59.0198C225.263 58.3366 225.122 57.7352 224.825 57.2154C224.529 56.6955 224.12 56.2871 223.601 55.9901C223.096 55.6931 222.51 55.5446 221.842 55.5446C221.16 55.5446 220.559 55.6931 220.039 55.9901C219.535 56.2871 219.134 56.703 218.837 57.2376C218.555 57.7574 218.414 58.3738 218.414 59.0866V59.5322C218.414 60.245 218.577 60.8762 218.904 61.4257C219.23 61.9752 219.69 62.3985 220.284 62.6955C220.878 62.9926 221.56 63.1411 222.332 63.1411C223 63.1411 223.601 63.0371 224.135 62.8292C224.67 62.6213 225.144 62.2946 225.56 61.849L227.052 63.5644C226.517 64.1881 225.842 64.6708 225.026 65.0124C224.224 65.3391 223.304 65.5025 222.265 65.5025Z" fill="#C49E5F"/>
<path d="M236.158 53.3168C237.108 53.3168 237.954 53.5025 238.696 53.8738C239.453 54.245 240.046 54.8168 240.477 55.5891C240.907 56.3465 241.122 57.3267 241.122 58.5297V65.3465H238.34V58.8861C238.34 57.8317 238.087 57.0446 237.583 56.5248C237.093 56.005 236.403 55.7451 235.513 55.7451C234.86 55.7451 234.281 55.8787 233.776 56.146C233.272 56.4134 232.878 56.8144 232.596 57.349C232.329 57.8688 232.196 58.5297 232.196 59.3317V65.3465H229.413V53.4505H232.062V56.6584L231.594 55.6782C232.01 54.9208 232.611 54.3416 233.398 53.9406C234.199 53.5248 235.119 53.3168 236.158 53.3168Z" fill="#C49E5F"/>
<path d="M247.213 65.5025C246.218 65.5025 245.261 65.3762 244.341 65.1238C243.436 64.8564 242.716 64.5371 242.181 64.1658L243.25 62.0495C243.784 62.3911 244.422 62.6733 245.164 62.896C245.907 63.1188 246.649 63.2302 247.391 63.2302C248.266 63.2302 248.897 63.1114 249.283 62.8738C249.684 62.6361 249.884 62.3168 249.884 61.9158C249.884 61.5891 249.75 61.3441 249.483 61.1807C249.216 61.0025 248.867 60.8688 248.437 60.7797C248.007 60.6906 247.524 60.6089 246.99 60.5347C246.471 60.4604 245.944 60.3639 245.409 60.245C244.89 60.1114 244.415 59.9257 243.985 59.6881C243.554 59.4356 243.205 59.1015 242.938 58.6856C242.671 58.2698 242.538 57.7203 242.538 57.0371C242.538 56.2797 242.753 55.6262 243.183 55.0767C243.614 54.5124 244.215 54.0817 244.986 53.7847C245.773 53.4728 246.701 53.3168 247.769 53.3168C248.571 53.3168 249.379 53.4059 250.196 53.5842C251.012 53.7624 251.687 54.0149 252.221 54.3416L251.153 56.4579C250.589 56.1163 250.018 55.8861 249.439 55.7673C248.875 55.6337 248.311 55.5668 247.747 55.5668C246.901 55.5668 246.27 55.6931 245.855 55.9455C245.454 56.198 245.254 56.5173 245.254 56.9035C245.254 57.2599 245.387 57.5272 245.654 57.7054C245.921 57.8837 246.27 58.0248 246.701 58.1287C247.131 58.2327 247.606 58.3218 248.125 58.396C248.66 58.4554 249.186 58.552 249.706 58.6856C250.225 58.8193 250.7 59.005 251.131 59.2426C251.576 59.4653 251.932 59.7847 252.199 60.2005C252.466 60.6163 252.6 61.1584 252.6 61.8267C252.6 62.5693 252.377 63.2154 251.932 63.7649C251.502 64.3144 250.886 64.7451 250.084 65.0569C249.283 65.354 248.326 65.5025 247.213 65.5025Z" fill="#C49E5F"/>
<path d="M263.687 65.5693C262.603 65.5693 261.631 65.3911 260.77 65.0347C259.909 64.6782 259.234 64.1881 258.744 63.5644C258.255 62.9406 258.01 62.2203 258.01 61.4035C258.01 60.6609 258.173 59.9926 258.5 59.3985C258.826 58.8045 259.345 58.2401 260.058 57.7054C260.77 57.1559 261.683 56.6064 262.796 56.0569C263.672 55.6262 264.354 55.2475 264.844 54.9208C265.349 54.5941 265.697 54.2822 265.89 53.9851C266.098 53.6881 266.202 53.3762 266.202 53.0495C266.202 52.604 266.046 52.2475 265.735 51.9802C265.423 51.698 264.978 51.5569 264.399 51.5569C263.776 51.5569 263.286 51.7129 262.93 52.0248C262.588 52.3218 262.418 52.7153 262.418 53.2054C262.418 53.4579 262.462 53.703 262.551 53.9406C262.655 54.1782 262.833 54.4455 263.085 54.7426C263.338 55.0396 263.701 55.4183 264.176 55.8787L272.413 63.7871L270.877 65.5916L261.972 57.0371C261.468 56.547 261.06 56.0941 260.748 55.6782C260.436 55.2624 260.214 54.8614 260.08 54.4752C259.947 54.0743 259.88 53.6658 259.88 53.25C259.88 52.5223 260.065 51.8837 260.436 51.3342C260.807 50.7698 261.334 50.3391 262.017 50.0421C262.7 49.7302 263.494 49.5743 264.399 49.5743C265.245 49.5743 265.972 49.7153 266.581 49.9975C267.204 50.2649 267.686 50.6584 268.028 51.1782C268.384 51.6832 268.562 52.2921 268.562 53.0049C268.562 53.6287 268.406 54.2079 268.094 54.7426C267.783 55.2624 267.293 55.7599 266.625 56.2352C265.972 56.7104 265.096 57.2079 263.998 57.7277C263.182 58.1287 262.536 58.5074 262.061 58.8639C261.587 59.2203 261.245 59.5767 261.037 59.9332C260.83 60.2896 260.726 60.6832 260.726 61.1139C260.726 61.5446 260.852 61.9233 261.104 62.25C261.371 62.5767 261.742 62.8366 262.217 63.0297C262.692 63.2079 263.249 63.297 263.887 63.297C264.837 63.297 265.697 63.0891 266.469 62.6733C267.256 62.2426 267.916 61.604 268.45 60.7574C268.985 59.9109 269.371 58.8639 269.608 57.6163L271.857 58.3515C271.545 59.8515 271.003 61.1436 270.231 62.2277C269.475 63.297 268.54 64.1213 267.426 64.7005C266.313 65.2797 265.067 65.5693 263.687 65.5693Z" fill="#C49E5F"/>
<path d="M283.665 65.5693C282.448 65.5693 281.283 65.3985 280.169 65.0569C279.056 64.7005 278.173 64.2475 277.52 63.698L278.522 61.448C279.145 61.9381 279.917 62.3465 280.837 62.6733C281.757 63 282.7 63.1634 283.665 63.1634C284.481 63.1634 285.141 63.0743 285.646 62.896C286.15 62.7178 286.521 62.4802 286.759 62.1832C286.996 61.8713 287.115 61.5223 287.115 61.1361C287.115 60.6609 286.944 60.2822 286.603 60C286.262 59.703 285.817 59.4728 285.267 59.3094C284.733 59.1312 284.132 58.9678 283.464 58.8193C282.811 58.6708 282.151 58.5 281.483 58.3069C280.83 58.099 280.229 57.8391 279.68 57.5272C279.145 57.2005 278.708 56.7698 278.366 56.2352C278.025 55.7005 277.854 55.0173 277.854 54.1856C277.854 53.3391 278.077 52.5668 278.522 51.8688C278.982 51.1559 279.672 50.5916 280.592 50.1757C281.527 49.7451 282.707 49.5297 284.132 49.5297C285.067 49.5297 285.995 49.6485 286.915 49.8861C287.835 50.1238 288.636 50.4653 289.319 50.9109L288.406 53.1609C287.709 52.745 286.989 52.4406 286.247 52.2475C285.505 52.0396 284.792 51.9356 284.11 51.9356C283.308 51.9356 282.655 52.0322 282.151 52.2253C281.661 52.4183 281.297 52.6708 281.06 52.9827C280.837 53.2946 280.726 53.651 280.726 54.052C280.726 54.5272 280.889 54.9134 281.216 55.2104C281.557 55.4926 281.995 55.7153 282.529 55.8787C283.078 56.0421 283.687 56.2054 284.355 56.3688C285.023 56.5173 285.683 56.6881 286.336 56.8812C287.004 57.0743 287.605 57.3267 288.139 57.6386C288.688 57.9505 289.126 58.3738 289.453 58.9084C289.794 59.4431 289.965 60.1188 289.965 60.9356C289.965 61.7673 289.735 62.5396 289.274 63.2525C288.829 63.9505 288.139 64.5149 287.204 64.9455C286.269 65.3614 285.089 65.5693 283.665 65.5693Z" fill="#C49E5F"/>
<path d="M298.199 53.3168C299.149 53.3168 299.995 53.5025 300.737 53.8738C301.494 54.245 302.088 54.8168 302.518 55.5891C302.948 56.3465 303.164 57.3267 303.164 58.5297V65.3465H300.381V58.8861C300.381 57.8317 300.129 57.0446 299.624 56.5248C299.134 56.005 298.444 55.7451 297.554 55.7451C296.901 55.7451 296.322 55.8787 295.817 56.146C295.313 56.4134 294.919 56.8144 294.637 57.349C294.37 57.8688 294.237 58.5297 294.237 59.3317V65.3465H291.454V48.8168H294.237V56.6584L293.636 55.6782C294.051 54.9208 294.652 54.3416 295.439 53.9406C296.24 53.5248 297.16 53.3168 298.199 53.3168Z" fill="#C49E5F"/>
<path d="M310.612 65.5025C309.603 65.5025 308.712 65.3168 307.94 64.9455C307.169 64.5594 306.568 63.9802 306.137 63.2079C305.707 62.4208 305.492 61.4332 305.492 60.245V53.4505H308.274V59.8663C308.274 60.9356 308.512 61.7376 308.987 62.2723C309.476 62.7921 310.166 63.052 311.057 63.052C311.71 63.052 312.274 62.9183 312.749 62.651C313.239 62.3837 313.617 61.9827 313.884 61.448C314.166 60.9134 314.307 60.2525 314.307 59.4653V53.4505H317.09V65.3465H314.441V62.1386L314.908 63.1188C314.507 63.8911 313.921 64.4852 313.15 64.901C312.378 65.302 311.532 65.5025 310.612 65.5025Z" fill="#C49E5F"/>
<path d="M324.095 65.5025C322.789 65.5025 321.78 65.1683 321.067 64.5C320.355 63.8168 319.999 62.8144 319.999 61.4926V50.8218H322.781V61.4257C322.781 61.9901 322.922 62.4282 323.204 62.7401C323.501 63.052 323.909 63.2079 324.429 63.2079C325.052 63.2079 325.571 63.0446 325.987 62.7178L326.766 64.7005C326.44 64.9678 326.039 65.1683 325.564 65.302C325.089 65.4356 324.599 65.5025 324.095 65.5025ZM318.04 55.7673V53.5396H325.965V55.7673H318.04Z" fill="#C49E5F"/>
<path d="M332.134 65.5025C330.828 65.5025 329.819 65.1683 329.107 64.5C328.394 63.8168 328.038 62.8144 328.038 61.4926V50.8218H330.821V61.4257C330.821 61.9901 330.962 62.4282 331.244 62.7401C331.541 63.052 331.949 63.2079 332.468 63.2079C333.091 63.2079 333.611 63.0446 334.026 62.7178L334.806 64.7005C334.479 64.9678 334.078 65.1683 333.603 65.302C333.129 65.4356 332.639 65.5025 332.134 65.5025ZM326.079 55.7673V53.5396H334.004V55.7673H326.079Z" fill="#C49E5F"/>
<path d="M341.178 65.5025C339.857 65.5025 338.699 65.2426 337.705 64.7228C336.726 64.1881 335.961 63.4604 335.412 62.5396C334.878 61.6188 334.611 60.5718 334.611 59.3985C334.611 58.2104 334.87 57.1634 335.39 56.2574C335.924 55.3366 336.651 54.6163 337.572 54.0965C338.507 53.5767 339.568 53.3168 340.755 53.3168C341.913 53.3168 342.944 53.5693 343.849 54.0743C344.755 54.5792 345.467 55.2921 345.986 56.2129C346.506 57.1337 346.766 58.2178 346.766 59.4653C346.766 59.5842 346.758 59.7178 346.743 59.8663C346.743 60.0149 346.736 60.1559 346.721 60.2896H336.815V58.4406H345.252L344.161 59.0198C344.176 58.3366 344.035 57.7352 343.738 57.2154C343.441 56.6955 343.033 56.2871 342.514 55.9901C342.009 55.6931 341.423 55.5446 340.755 55.5446C340.072 55.5446 339.471 55.6931 338.952 55.9901C338.447 56.2871 338.046 56.703 337.75 57.2376C337.468 57.7574 337.327 58.3738 337.327 59.0866V59.5322C337.327 60.245 337.49 60.8762 337.816 61.4257C338.143 61.9752 338.603 62.3985 339.197 62.6955C339.79 62.9926 340.473 63.1411 341.245 63.1411C341.913 63.1411 342.514 63.0371 343.048 62.8292C343.582 62.6213 344.057 62.2946 344.473 61.849L345.964 63.5644C345.43 64.1881 344.755 64.6708 343.938 65.0124C343.137 65.3391 342.217 65.5025 341.178 65.5025Z" fill="#C49E5F"/>
<path d="M348.326 65.3465V53.4505H350.975V56.7252L350.663 55.7673C351.019 54.9653 351.576 54.3564 352.333 53.9406C353.104 53.5248 354.062 53.3168 355.204 53.3168V55.9678C355.086 55.9381 354.974 55.9233 354.87 55.9233C354.767 55.9084 354.663 55.901 354.559 55.901C353.505 55.901 352.667 56.2129 352.043 56.8366C351.42 57.4455 351.108 58.3589 351.108 59.5767V65.3465H348.326Z" fill="#C49E5F"/>
<path d="M360.234 65.5025C359.239 65.5025 358.282 65.3762 357.362 65.1238C356.457 64.8564 355.737 64.5371 355.203 64.1658L356.271 62.0495C356.805 62.3911 357.444 62.6733 358.186 62.896C358.928 63.1188 359.67 63.2302 360.412 63.2302C361.287 63.2302 361.918 63.1114 362.304 62.8738C362.705 62.6361 362.905 62.3168 362.905 61.9158C362.905 61.5891 362.772 61.3441 362.504 61.1807C362.237 61.0025 361.888 60.8688 361.458 60.7797C361.028 60.6906 360.545 60.6089 360.011 60.5347C359.492 60.4604 358.965 60.3639 358.431 60.245C357.911 60.1114 357.436 59.9257 357.006 59.6881C356.575 59.4356 356.227 59.1015 355.959 58.6856C355.692 58.2698 355.559 57.7203 355.559 57.0371C355.559 56.2797 355.774 55.6262 356.204 55.0767C356.635 54.5124 357.236 54.0817 358.008 53.7847C358.794 53.4728 359.722 53.3168 360.79 53.3168C361.592 53.3168 362.401 53.4059 363.217 53.5842C364.033 53.7624 364.708 54.0149 365.243 54.3416L364.174 56.4579C363.61 56.1163 363.039 55.8861 362.46 55.7673C361.896 55.6337 361.332 55.5668 360.768 55.5668C359.922 55.5668 359.291 55.6931 358.876 55.9455C358.475 56.198 358.275 56.5173 358.275 56.9035C358.275 57.2599 358.408 57.5272 358.675 57.7054C358.943 57.8837 359.291 58.0248 359.722 58.1287C360.152 58.2327 360.627 58.3218 361.146 58.396C361.681 58.4554 362.208 58.552 362.727 58.6856C363.246 58.8193 363.721 59.005 364.152 59.2426C364.597 59.4653 364.953 59.7847 365.22 60.2005C365.487 60.6163 365.621 61.1584 365.621 61.8267C365.621 62.5693 365.398 63.2154 364.953 63.7649C364.523 64.3144 363.907 64.7451 363.105 65.0569C362.304 65.354 361.347 65.5025 360.234 65.5025Z" fill="#C49E5F"/>
<path d="M0 74.6142L0.0784087 0.0776835L89.0464 0V75H0.145304L0 74.6142ZM16.5256 59.8766H3.06186V72.0679H16.5256V59.8766ZM32.1314 60.8238L33.4726 57.176L34.0439 54.7844L34.2733 54.7842V57.8706H47.7371V45.6851L40.9593 45.6021L40.5938 44.5218L40.3874 43.6731H47.7371V31.4818H38.9551L39.2677 31.1665L42.1226 30.3444L43.137 29.3213H47.7371V17.2844H34.2733V26.3622L32.7044 28.2561L32.2079 28.1598L32.1275 17.2844H22.6674L21.2686 15.4291V15.1239H32.1314V2.9326H18.6676V12.3279L18.3828 12.5055L18.2021 12.2107L16.5256 11.2432V2.9326H3.06186V15.1193L12.3182 15.201V17.2072L3.06186 17.2889V29.3213H5.05285L5.73932 30.1482L6.7338 31.2877V31.4818H3.06186V43.6731H14.5225L13.6686 45.6021L3.06186 45.6832V57.8705H16.5256V53.4223L18.3581 52.1607H18.6676V57.8705H21.1156V57.9919L20.1098 59.7995L18.6676 59.8936V72.0679H32.1314V60.8238ZM20.6225 61.8792L21.29 60.2204L23.8109 55.9415L25.9968 51.9292L27.6105 48.5341L27.618 46.2193L26.7721 40.6638L26.4629 39.1206L26.1832 38.6699L25.5837 39.2171L24.4301 42.3613L23.5539 44.1464L22.3108 46.195L20.696 48.2255L18.2769 50.6174L16.6021 51.8966L14.7211 52.7922L13.6213 52.9722L13.1207 52.5532L13.3123 50.2671L14.5113 46.6499L15.9387 43.7832L17.6217 41.0389L20.2307 38.2736L21.7793 37.1145L24.3857 35.7256L24.711 35.1767L24.252 34.8812L22.263 35.1083L18.5911 35.0564L15.4475 34.4065L12.9302 33.6064L10.1228 32.2853L8.40108 31.1326L6.61639 29.3325L5.81581 27.9546V26.8742L6.27201 26.4141L7.40365 26.0374L10.4822 26.2222L12.3182 26.7046L15.2252 27.6586L21.1921 30.6912L25.323 33.2751L25.8718 33.4834L27.0528 32.6952L28.4965 32.2569L29.3009 32.4364L29.8197 32.5775L30.0236 31.4046L30.7785 30.0736L31.7489 29.4768L33.1737 29.4756L35.2085 27.2589L38.1748 23.5736L38.8143 22.7879L39.3223 22.9845V23.5603L38.1581 25.2318L37.1001 26.6207L34.07 30.4236L34.6913 31.7134L34.9063 32.7011L34.3149 34.0281L33.484 34.7997L31.1369 34.8328L31.0452 36.2262L34.8088 39.1824L35.5738 39.8969L38.2812 42.0493L38.9874 43.2873L39.926 46.6823L40.5731 49.4483L41.1407 50.5403L42.9937 53.0094L42.9941 53.5495H42.5458L41.4058 52.5465L40.1637 51.1963L39.3516 49.963L39.038 48.6885L38.2409 45.1391L37.5057 43.3281L36.8061 42.577L33.3909 40.1427L30.4427 37.5003H29.5303V37.9835L29.8852 38.6577L33.98 44.9027L34.5725 46.2193L34.5793 47.526L32.1543 57.176L31.2413 59.667L30.347 61.6513L29.8234 62.0858L29.4883 61.7478L29.9807 59.7706L32.309 51.9292L33.175 48.2255L33.3728 46.97L32.3312 44.9546L28.4191 38.9066L27.9566 38.7276L27.7865 38.8991L28.1658 41.4354L28.7492 45.6021L29.0626 47.4219L28.764 48.766L27.7913 51.0033L25.9716 54.5526L24.135 57.7933L21.6853 61.96L21.21 62.3458H20.7999L20.6225 61.8792ZM24.4815 59.7005L25.476 57.8742L29.2303 57.8705L29.0239 58.7193L28.6586 59.7995L24.4815 59.8854V59.7005ZM24.3285 45.3774L25.1572 43.6731H25.9699L26.1645 45.105V45.6792H24.3285V45.3774ZM29.8804 44.9848L29.7125 43.6731H30.0709L31.1369 45.4431L31.2389 45.6792H30.1348L29.8804 44.9848ZM34.8154 43.9045L34.7068 43.6731H36.2792L37.0273 45.3794V45.6792H35.7141L34.8154 43.9045ZM16.6021 36.0342L17.9514 36.1377L18.6676 36.4124V37.9859L16.7551 40.1207L16.539 40.1237L16.6021 36.0342ZM33.1321 36.2748L33.4384 35.9659L34.1968 35.8799L34.2973 36.7663L34.0439 37.0143L33.1321 36.2748ZM23.487 31.2345L21.3451 29.8009L18.8708 27.7969L17.136 25.9069L15.9677 24.1516L15.0133 22.4476L14.0834 19.6481L13.5928 16.5237L13.6952 12.8168L14.3765 12.1304L15.4676 12.1616L17.1925 13.0406L19.5834 15.3082L21.5194 17.8245L23.5211 21.0652L25.6904 25.0775L27.072 28.2236L28.1534 31.3573V31.64L26.4324 32.4077H25.4711L23.487 31.2345ZM35.9383 30.5559L36.1316 30.2403L37.874 29.3532L40.5465 28.531L41.8138 28.4725L41.9422 28.8387L41.1998 29.3294L39.0826 29.9211L36.7468 30.8645H36.1274L35.9383 30.5559ZM47.7371 59.8766H34.2733V72.0679H47.7371V59.8766ZM86.063 56.0958L53.388 56.0173L53.4745 52.5465L86.1395 52.4679V42.9015H53.388L53.4745 39.4293L86.1395 39.3507V29.7843H53.398V26.2349H86.1395V16.6685L53.4745 16.5899L53.388 13.1191L86.063 13.0406V3.00976H50.8736L50.7964 68.9828L86.063 68.9044V56.0958ZM47.7371 2.92936L34.3498 3.00976L34.2698 15.1239H47.7371V2.92936Z" fill="#C49E5F"/>
</svg>
