<svg width="209" height="280" viewBox="0 0 209 280" fill="none" xmlns="http://www.w3.org/2000/svg">
<path d="M83.1401 277.267L84.1362 279.867H86.439L89.1078 277.717L102.863 254.495L113.176 236.433L123.394 216.651L128.855 204.182L130.532 196.691L128.772 186.549L125.496 163.327L123.366 149.191L124.321 148.235L126.918 149.232L148.885 182.94L154.734 194.173L153.623 201.17L148.76 221.812L135.687 265.515L132.922 276.534L134.804 278.418L137.743 275.997L142.765 264.937L147.892 251.054L161.508 197.271L161.47 189.989L158.143 182.651L135.151 147.845L133.158 144.088V141.395H138.281L154.835 156.122L174.012 169.689L177.94 173.875L182.068 183.968L186.544 203.75L188.305 210.854L192.865 217.727L199.84 225.252L206.24 230.843H208.758L208.755 227.832L198.351 214.071L195.164 207.985L191.53 192.569L186.26 173.647L182.295 166.748L167.093 154.752L162.797 150.77L141.664 134.294L142.179 126.528L155.358 126.343L160.024 122.043L163.345 114.647L162.137 109.142L158.649 101.954L175.663 80.7592L181.604 73.0185L188.14 63.7025V60.4934L185.288 59.3977L181.697 63.7768L165.041 84.3161L153.616 96.6706L145.615 96.677L140.167 100.003L135.928 107.422L134.783 113.958L131.87 113.172L127.353 112.172L119.247 114.614L112.615 119.007L109.534 117.846L86.3384 103.445L52.8339 86.5438L36.5113 81.2266L26.2022 78.5381L8.91583 77.5082L2.56158 79.6077L0 82.1722V88.1936L4.4953 95.8729L14.5164 105.906L24.184 112.33L39.9476 119.693L54.0823 124.152L71.7338 127.774L92.352 128.063L103.52 126.798L106.097 128.444L104.271 131.504L89.636 139.244L80.9401 145.705L66.2908 161.117L56.8405 176.412L48.8257 192.388L42.093 212.548L41.0173 225.29L43.8281 227.625L50.0035 226.622L60.5657 221.63L69.9695 214.501L83.5527 201.17L92.62 189.853L99.6003 178.436L104.52 168.487L110.998 150.963L114.364 147.914L115.934 150.425L117.671 159.026L122.42 189.989L122.378 202.89L113.317 221.812L101.043 244.174L86.8882 268.021L83.1401 277.267Z" fill="#C49E5F"/>
<path d="M99.2247 106.473L110.366 113.012H115.763L125.427 108.733V107.158L119.355 89.6926L111.597 72.1584L99.4158 49.7964L88.1765 31.7348L77.3057 17.7108L63.8804 5.07248L54.1954 0.173874L48.0688 0L44.243 3.82542L43.6682 24.4853L46.423 41.8983L51.6445 57.5012L57.0031 66.998L63.5632 76.7807L73.3044 87.3145L87.1974 98.4834L99.2247 106.473Z" fill="#C49E5F"/>
<path d="M169.139 102.691L170.201 104.411H173.679L186.795 99.1535L198.682 95.8555L202.852 93.1207L202.13 91.0801L195.014 91.4057L180.008 95.988L170.225 100.932L169.139 102.691Z" fill="#C49E5F"/>
</svg>
