<?xml version="1.0" encoding="utf-8"?>
<!-- Generator: Adobe Illustrator 19.0.0, SVG Export Plug-In . SVG Version: 6.00 Build 0)  -->
<svg version="1.1" id="Livello_1" xmlns="http://www.w3.org/2000/svg" xmlns:xlink="http://www.w3.org/1999/xlink" x="0px" y="0px"
	 viewBox="0 0 305.4 53" style="enable-background:new 0 0 305.4 53;" xml:space="preserve">
<style type="text/css">
	.st0{fill:#FFFFFF;}
</style>
<g>
	<g>
		<path class="st0" d="M6.1,6.6l30.2,0.1V13L13.2,13v27.9l23.1,0.1v6.4L6.1,47.2V6.6z"/>
	</g>
	<path class="st0" d="M40.2,22.8V6.6h6.6v40.6h-6.6V30l-22.9,0v-7.2L40.2,22.8z"/>
	<g>
		<path class="st0" d="M66.1,38.1h1l4.2,9.2h-1.1L69,44.9h-5L63,47.3h-1.1L66.1,38.1z M68.6,43.9l-2.1-4.7l-2.1,4.7H68.6z"/>
		<path class="st0" d="M74.6,38.2h3.9c1,0,1.9,0.3,2.4,0.8c0.4,0.4,0.6,0.9,0.6,1.5v0c0,1.2-0.7,1.8-1.4,2.1c1.1,0.3,2,1,2,2.2v0
			c0,1.6-1.3,2.5-3.3,2.5h-4.1V38.2z M78.3,42.2c1.2,0,2.1-0.6,2.1-1.6v0c0-0.9-0.7-1.5-2-1.5h-2.8v3.1H78.3z M78.7,46.4
			c1.4,0,2.2-0.6,2.2-1.6v0c0-1-0.8-1.6-2.4-1.6h-2.9v3.2H78.7z"/>
		<path class="st0" d="M85.7,38.2h3.9c1,0,1.9,0.3,2.4,0.8c0.4,0.4,0.6,0.9,0.6,1.5v0c0,1.2-0.7,1.8-1.4,2.1c1.1,0.3,2,1,2,2.2v0
			c0,1.6-1.3,2.5-3.3,2.5h-4.1V38.2z M89.4,42.2c1.2,0,2.1-0.6,2.1-1.6v0c0-0.9-0.7-1.5-2-1.5h-2.8v3.1H89.4z M89.7,46.4
			c1.4,0,2.2-0.6,2.2-1.6v0c0-1-0.8-1.6-2.4-1.6h-2.9v3.2H89.7z"/>
		<path class="st0" d="M96.7,38.2h3.9c1.1,0,2,0.3,2.6,0.9c0.4,0.4,0.7,1.1,0.7,1.8v0c0,1.5-1,2.4-2.5,2.7l2.8,3.7H103l-2.6-3.5
			h-2.6v3.5h-1V38.2z M100.5,42.8c1.4,0,2.3-0.7,2.3-1.9v0c0-1.1-0.9-1.8-2.3-1.8h-2.8v3.7H100.5z"/>
		<path class="st0" d="M111.1,38.1h1l4.2,9.2h-1.1l-1.1-2.4h-5l-1.1,2.4H107L111.1,38.1z M113.7,43.9l-2.1-4.7l-2.1,4.7H113.7z"/>
		<path class="st0" d="M118.7,42.7L118.7,42.7c0-2.6,1.9-4.7,4.6-4.7c1.7,0,2.6,0.6,3.6,1.4l-0.7,0.8c-0.8-0.7-1.6-1.3-2.9-1.3
			c-2,0-3.5,1.6-3.5,3.7v0c0,2.1,1.5,3.8,3.5,3.8c1.3,0,2.1-0.5,2.9-1.3l0.7,0.7c-1,1-2,1.6-3.7,1.6
			C120.7,47.4,118.7,45.4,118.7,42.7z"/>
		<path class="st0" d="M129.7,42.7L129.7,42.7c0-2.6,1.9-4.7,4.6-4.7c1.7,0,2.6,0.6,3.6,1.4l-0.7,0.8c-0.8-0.7-1.6-1.3-2.9-1.3
			c-2,0-3.5,1.6-3.5,3.7v0c0,2.1,1.5,3.8,3.5,3.8c1.3,0,2.1-0.5,2.9-1.3l0.7,0.7c-1,1-2,1.6-3.7,1.6
			C131.7,47.4,129.7,45.4,129.7,42.7z"/>
		<path class="st0" d="M141.5,38.2h1v9.1h-1V38.2z"/>
		<path class="st0" d="M150.2,38.1h1l4.2,9.2h-1.1l-1.1-2.4h-5l-1.1,2.4H146L150.2,38.1z M152.7,43.9l-2.1-4.7l-2.1,4.7H152.7z"/>
		<path class="st0" d="M158.8,38.2h1l3.3,5l3.3-5h1v9.1h-1v-7.4l-3.3,4.9h-0.1l-3.3-4.9v7.4h-1V38.2z"/>
		<path class="st0" d="M171.3,42.7L171.3,42.7c0-2.5,1.9-4.7,4.7-4.7c2.8,0,4.6,2.2,4.6,4.7v0c0,2.5-1.9,4.7-4.7,4.7
			C173.2,47.4,171.3,45.3,171.3,42.7z M179.5,42.7L179.5,42.7c0-2.1-1.5-3.8-3.6-3.8c-2.1,0-3.6,1.7-3.6,3.7v0
			c0,2.1,1.5,3.8,3.6,3.8C178.1,46.5,179.5,44.8,179.5,42.7z"/>
		<path class="st0" d="M191.4,38.2h1v8.2h5.1v1h-6.2V38.2z"/>
		<path class="st0" d="M204.5,38.1h1l4.2,9.2h-1.1l-1.1-2.4h-5l-1.1,2.4h-1.1L204.5,38.1z M207,43.9l-2.1-4.7l-2.1,4.7H207z"/>
		<path class="st0" d="M222.4,39.1h-3.1v-1h7.2v1h-3.1v8.2h-1V39.1z"/>
		<path class="st0" d="M229.9,43.5v-5.3h1v5.2c0,2,1,3.1,2.8,3.1c1.7,0,2.8-1,2.8-3v-5.3h1v5.2c0,2.7-1.5,4-3.8,4
			C231.5,47.4,229.9,46,229.9,43.5z"/>
		<path class="st0" d="M244.6,38.1h1l4.2,9.2h-1.1l-1.1-2.4h-5l-1.1,2.4h-1.1L244.6,38.1z M247.2,43.9l-2.1-4.7l-2.1,4.7H247.2z"/>
		<path class="st0" d="M259.8,42.7L259.8,42.7c0-2.6,1.9-4.7,4.6-4.7c1.7,0,2.6,0.6,3.6,1.4l-0.7,0.8c-0.8-0.7-1.6-1.3-2.9-1.3
			c-2,0-3.5,1.6-3.5,3.7v0c0,2.1,1.5,3.8,3.5,3.8c1.3,0,2.1-0.5,2.9-1.3l0.7,0.7c-1,1-2,1.6-3.7,1.6
			C261.7,47.4,259.8,45.4,259.8,42.7z"/>
		<path class="st0" d="M274.8,38.1h1l4.2,9.2h-1.1l-1.1-2.4h-5l-1.1,2.4h-1.1L274.8,38.1z M277.3,43.9l-2.1-4.7l-2.1,4.7H277.3z"/>
		<path class="st0" d="M282.6,46l0.6-0.8c1,0.9,1.9,1.3,3.1,1.3c1.2,0,2-0.7,2-1.6v0c0-0.8-0.5-1.3-2.4-1.7
			c-2.1-0.5-3.1-1.1-3.1-2.6v0c0-1.4,1.3-2.5,3-2.5c1.3,0,2.3,0.4,3.2,1.1l-0.6,0.8c-0.8-0.7-1.7-1-2.6-1c-1.2,0-1.9,0.7-1.9,1.5v0
			c0,0.9,0.5,1.3,2.5,1.8c2,0.4,3,1.2,3,2.6v0c0,1.6-1.3,2.6-3.1,2.6C284.8,47.4,283.7,46.9,282.6,46z"/>
		<path class="st0" d="M296.3,38.1h1l4.2,9.2h-1.1l-1.1-2.4h-5l-1.1,2.4h-1.1L296.3,38.1z M298.9,43.9l-2.1-4.7l-2.1,4.7H298.9z"/>
	</g>
	<g>
		<path class="st0" d="M62.2,27.1v-20h18.7v3.6H67.2v4.5h13.2v3.6H67.2v4.8h14.2v3.6H62.2z"/>
		<path class="st0" d="M94.2,10.7v5.1h12.7v3.6H94.2v7.7h-5v-20h18.5v3.6H94.2z"/>
		<path class="st0" d="M119.4,10.7v5.1h12.7v3.6h-12.7v7.7h-5v-20h18.5v3.6H119.4z"/>
		<path class="st0" d="M139.6,27.1v-20h18.7v3.6h-13.6v4.5h13.2v3.6h-13.2v4.8h14.2v3.6H139.6z"/>
		<path class="st0" d="M177.2,10.8v16.4h-5V10.8h-7.4V7.1h19.9v3.7H177.2z"/>
		<path class="st0" d="M207.8,27.1l-5.3-8.1h-5.7v8.1h-5v-20h13.8c1.7,0,2.5,0.1,3.3,0.4c2.6,0.8,4,3,4,5.6c0,0.5,0,1.5-0.5,2.6
			c-0.9,2-2.6,2.7-4.7,3l6.1,8.4H207.8z M207.4,11.6c-0.6-1-1.7-1-2.8-1h-7.9v4.9h8c0,0,0.8,0,1.2-0.1c0.6-0.1,1.8-0.7,1.8-2.3
			C207.8,12.9,207.8,12.2,207.4,11.6z"/>
		<path class="st0" d="M238.4,27.1l-1.7-3.8h-10.3l-1.7,3.8h-5.5l9.7-20h5.4l9.7,20H238.4z M231.6,12l-3.5,7.8h7L231.6,12z"/>
		<path class="st0" d="M269.7,24.5c-0.6,0.5-1.8,1.6-3.7,2.1c-1.2,0.4-2.3,0.5-4.9,0.5h-10.3v-20h11c2.5,0,4.6,0.2,6.8,1.6
			c0.3,0.2,1,0.6,1.6,1.3c1.8,1.8,2.5,4.5,2.5,7.1C272.6,21.1,270.9,23.4,269.7,24.5z M265.8,11.8c-0.2-0.2-0.7-0.5-1.4-0.8
			c-0.7-0.3-1.4-0.4-2.9-0.4h-5.8v12.9h5.6c0.3,0,1.9,0.1,3.1-0.4c1.8-0.6,3.3-2.4,3.3-6.3C267.6,16.4,267.7,13.4,265.8,11.8z"/>
		<path class="st0" d="M280.7,27.1v-20h18.7v3.6h-13.6v4.5h13.2v3.6h-13.2v4.8h14.2v3.6H280.7z"/>
	</g>
</g>
</svg>
