<svg xmlns="http://www.w3.org/2000/svg" version="1.1" xmlns:xlink="http://www.w3.org/1999/xlink" width="243" height="203"><svg width="243" height="203" viewBox="0 0 243 203" fill="none" xmlns="http://www.w3.org/2000/svg">
<path d="M0 201.956L0.213971 0.210263L243 0V203H0.396522L0 201.956ZM45.097 162.066H8.35555V195.064H45.097V162.066ZM87.6837 164.63L91.3438 154.757L92.9027 148.283L93.529 148.283V156.636H130.27V123.654L111.774 123.43L110.777 120.506L110.214 118.208H130.27V85.2107H106.305L107.158 84.3573L114.949 82.1323L117.717 79.363H130.27V46.783H93.529V71.3538L89.2475 76.4799L87.8925 76.2191L87.6731 46.783H61.8574L58.0401 41.7613V40.9353H87.6837V7.93758H50.9423V33.3675L50.1649 33.8481L49.6721 33.0503L45.097 30.4317V7.93758H8.35555V40.923L33.6153 41.1441V46.5741L8.35555 46.7952V79.363H13.7888L15.6621 81.601L18.376 84.6854V85.2107H8.35555V118.208H39.6307L37.3005 123.43L8.35555 123.649V156.636H45.097V144.596L50.0978 141.182H50.9423V156.636H57.6225V156.965L54.8779 161.857L50.9423 162.112V195.064H87.6837V164.63ZM56.2769 167.486L58.0985 162.997L64.9778 151.415L70.9431 140.555L75.3468 131.366L75.367 125.1L73.0587 110.063L72.215 105.886L71.4516 104.667L69.8157 106.148L66.6675 114.658L64.2766 119.49L60.8842 125.035L56.4775 130.53L49.876 137.005L45.3058 140.467L40.1726 142.891L37.1713 143.378L35.8052 142.244L36.3281 136.056L39.6002 126.266L43.4953 118.507L48.0882 111.079L55.2077 103.594L59.4339 100.456L66.5465 96.6972L67.4342 95.2115L66.1816 94.4117L60.7539 95.0265L50.7335 94.8859L42.1548 93.1271L35.2854 90.9613L27.6243 87.3856L22.9258 84.2657L18.0555 79.3933L15.8709 75.6639V72.7396L17.1158 71.4941L20.2039 70.4745L28.6051 70.9747L33.6153 72.2804L41.5481 74.8626L57.8313 83.0707L69.1042 90.0645L70.602 90.6285L73.8246 88.4949L77.7645 87.3087L79.9597 87.7945L81.3753 88.1763L81.9318 85.0019L83.992 81.3991L86.6399 79.7838L90.5282 79.7807L96.0809 73.7808L104.176 63.8059L105.921 61.6793L107.307 62.2114V63.7699L104.13 68.2942L101.243 72.0534L92.9741 82.3465L94.6694 85.8375L95.2563 88.511L93.6424 92.1026L91.3748 94.1911L84.9699 94.2808L84.7197 98.0523L94.9903 106.054L97.0779 107.988L104.466 113.813L106.393 117.164L108.955 126.353L110.721 133.84L112.269 136.796L117.326 143.479L117.327 144.941H116.104L112.993 142.226L109.603 138.571L107.387 135.233L106.531 131.783L104.356 122.176L102.35 117.275L100.441 115.242L91.1208 108.653L83.0755 101.501H80.5857V102.809L81.5541 104.633L92.7286 121.537L94.3454 125.1L94.3638 128.637L87.7464 154.757L85.2547 161.499L82.8142 166.87L81.3854 168.046L80.4711 167.131L81.8148 161.779L88.1684 140.555L90.5318 130.53L91.0713 127.132L88.2291 121.677L77.5531 105.307L76.291 104.823L75.8269 105.287L76.8619 112.152L78.4542 123.43L79.3093 128.355L78.4944 131.993L75.8401 138.049L70.8743 147.656L65.8622 156.427L59.1772 167.705L57.8802 168.749H56.7611L56.2769 167.486ZM66.8079 161.589L69.5218 156.646L79.7668 156.636L79.2036 158.933L78.2067 161.857L66.8079 162.09V161.589ZM66.3904 122.822L68.6519 118.208H70.8696L71.4006 122.084V123.638H66.3904V122.822ZM81.5411 121.759L81.0829 118.208H82.0609L84.9699 122.999L85.2482 123.638H82.2354L81.5411 121.759ZM95.0081 118.835L94.7119 118.208H99.0026L101.044 122.827V123.638H97.4606L95.0081 118.835ZM45.3058 97.5326L48.9877 97.8127L50.9423 98.5562V102.815L45.7233 108.593L45.1335 108.601L45.3058 97.5326ZM90.4147 98.1838L91.2504 97.3478L93.3202 97.1149L93.5943 99.514L92.9027 100.185L90.4147 98.1838ZM64.094 84.5414L58.2488 80.6611L51.4968 75.2369L46.7626 70.1213L43.5743 65.3703L40.97 60.7582L38.4324 53.1808L37.0936 44.7242L37.373 34.6908L39.2323 32.833L42.2098 32.9175L46.9167 35.2964L53.4414 41.4342L58.7246 48.2449L64.1869 57.0165L70.1069 67.8765L73.8772 76.3919L76.8283 84.8739V85.6389L72.1317 87.7169H69.5085L64.094 84.5414ZM98.0724 82.7045L98.6 81.8505L103.355 79.4492L110.648 77.2238L114.106 77.0657L114.457 78.0567L112.431 79.3848L106.653 80.9865L100.279 83.5399H98.5885L98.0724 82.7045ZM130.27 162.066H93.529V195.064H130.27V162.066ZM234.858 151.833L145.691 151.62L145.927 142.226L235.067 142.013V116.12H145.691L145.927 106.722L235.067 106.509V80.6161H145.719V71.0092H235.067V45.116L145.927 44.9034L145.691 35.5091L234.858 35.2964V8.14642H138.83L138.619 186.714L234.858 186.501V151.833ZM130.27 7.9288L93.7377 8.14642L93.5193 40.9353H130.27V7.9288Z" fill="#C49E5F"></path>
</svg><style>@media (prefers-color-scheme: light) { :root { filter: none; } }
@media (prefers-color-scheme: dark) { :root { filter: none; } }
</style></svg>